<svg width="128" height="22" viewBox="0 0 128 22" fill="none" xmlns="http://www.w3.org/2000/svg">
<path d="M7.37262 14.0781V9.28711C7.37262 8.95768 7.32607 8.6748 7.23297 8.43848C7.13987 8.20215 6.99306 8.01953 6.79254 7.89062C6.59202 7.75456 6.32347 7.68652 5.98688 7.68652C5.71474 7.68652 5.48199 7.73307 5.28864 7.82617C5.09528 7.91927 4.94847 8.05892 4.84821 8.24512C4.74795 8.43132 4.69781 8.66764 4.69781 8.9541H1.0777C1.0777 8.41699 1.19586 7.91927 1.43219 7.46094C1.67568 6.99544 2.01943 6.59082 2.46344 6.24707C2.91461 5.90332 3.45172 5.63835 4.07477 5.45215C4.70498 5.25879 5.4068 5.16211 6.18024 5.16211C7.10406 5.16211 7.92763 5.31608 8.65094 5.62402C9.38141 5.93197 9.95791 6.39388 10.3804 7.00977C10.803 7.61849 11.0142 8.38477 11.0142 9.30859V14.0674C11.0142 14.8265 11.0572 15.403 11.1431 15.7969C11.2291 16.1836 11.3508 16.5238 11.5084 16.8174V17H7.8775C7.70563 16.6419 7.57672 16.2051 7.49078 15.6895C7.41201 15.1667 7.37262 14.6296 7.37262 14.0781ZM7.81305 9.89941L7.83453 11.833H6.23395C5.89736 11.833 5.6109 11.8796 5.37457 11.9727C5.14541 12.0658 4.95921 12.1947 4.81598 12.3594C4.67991 12.5169 4.57965 12.696 4.5152 12.8965C4.45791 13.097 4.42926 13.3083 4.42926 13.5303C4.42926 13.7451 4.47939 13.9385 4.57965 14.1104C4.68707 14.2751 4.8303 14.404 5.00934 14.4971C5.18837 14.5902 5.3889 14.6367 5.6109 14.6367C6.01194 14.6367 6.35211 14.5615 6.63141 14.4111C6.91787 14.2536 7.13629 14.0638 7.28668 13.8418C7.43707 13.6198 7.51227 13.4121 7.51227 13.2188L8.30719 14.7012C8.16396 14.9876 7.99925 15.2777 7.81305 15.5713C7.63401 15.8649 7.40843 16.137 7.13629 16.3877C6.87132 16.6312 6.54547 16.8317 6.15875 16.9893C5.77203 17.1396 5.30296 17.2148 4.75153 17.2148C4.03538 17.2148 3.37653 17.068 2.77496 16.7744C2.18056 16.4808 1.70433 16.0726 1.34625 15.5498C0.98818 15.0199 0.809143 14.4111 0.809143 13.7236C0.809143 13.1221 0.916565 12.585 1.13141 12.1123C1.35341 11.6396 1.68642 11.2386 2.13043 10.9092C2.57444 10.5798 3.1402 10.3291 3.8277 10.1572C4.5152 9.98535 5.32444 9.89941 6.25543 9.89941H7.81305ZM18.0087 7.8584V17H14.3886V5.37695H17.7831L18.0087 7.8584ZM17.579 10.791L16.7304 10.8125C16.7304 9.92448 16.8378 9.13314 17.0526 8.43848C17.2675 7.73665 17.5718 7.14225 17.9657 6.65527C18.3596 6.16829 18.8287 5.79948 19.3729 5.54883C19.9244 5.29102 20.5367 5.16211 21.2098 5.16211C21.747 5.16211 22.2375 5.24089 22.6815 5.39844C23.1327 5.55599 23.5194 5.81022 23.8417 6.16113C24.1711 6.51204 24.4218 6.97754 24.5936 7.55762C24.7727 8.13053 24.8622 8.83952 24.8622 9.68457V17H21.2206V9.67383C21.2206 9.20833 21.1561 8.85384 21.0272 8.61035C20.8983 8.3597 20.7121 8.18783 20.4686 8.09473C20.2251 8.00163 19.9279 7.95508 19.577 7.95508C19.2046 7.95508 18.8895 8.02669 18.6317 8.16992C18.3739 8.31315 18.1662 8.51367 18.0087 8.77148C17.8583 9.02214 17.7473 9.31934 17.6757 9.66309C17.6112 10.0068 17.579 10.3828 17.579 10.791ZM32.1252 5.37695V17H28.4943V5.37695H32.1252ZM28.2795 2.37988C28.2795 1.86426 28.4657 1.44173 28.8381 1.1123C29.2105 0.782878 29.6939 0.618164 30.2883 0.618164C30.8827 0.618164 31.3661 0.782878 31.7385 1.1123C32.1109 1.44173 32.2971 1.86426 32.2971 2.37988C32.2971 2.89551 32.1109 3.31803 31.7385 3.64746C31.3661 3.97689 30.8827 4.1416 30.2883 4.1416C29.6939 4.1416 29.2105 3.97689 28.8381 3.64746C28.4657 3.31803 28.2795 2.89551 28.2795 2.37988ZM39.4419 7.83691V17H35.8218V5.37695H39.2163L39.4419 7.83691ZM39.0015 10.791L38.1743 10.8125C38.1743 9.99609 38.271 9.24414 38.4644 8.55664C38.6577 7.86914 38.9442 7.27116 39.3238 6.7627C39.7033 6.25423 40.1688 5.86035 40.7202 5.58105C41.2788 5.30176 41.9234 5.16211 42.6538 5.16211C43.1623 5.16211 43.6242 5.24089 44.0396 5.39844C44.4549 5.54883 44.813 5.78874 45.1138 6.11816C45.4146 6.44043 45.6437 6.86296 45.8013 7.38574C45.966 7.90137 46.0484 8.52083 46.0484 9.24414V17H42.4282V9.70605C42.4282 9.21191 42.371 8.83952 42.2564 8.58887C42.1489 8.33822 41.9914 8.16992 41.7837 8.08398C41.576 7.99805 41.3218 7.95508 41.021 7.95508C40.7059 7.95508 40.423 8.02669 40.1724 8.16992C39.9217 8.31315 39.7069 8.51367 39.5279 8.77148C39.356 9.02214 39.2235 9.31934 39.1304 9.66309C39.0445 10.0068 39.0015 10.3828 39.0015 10.791ZM45.6402 10.791L44.6304 10.8125C44.6304 9.99609 44.7199 9.24414 44.8989 8.55664C45.0851 7.86914 45.3609 7.27116 45.7261 6.7627C46.0985 6.25423 46.5604 5.86035 47.1118 5.58105C47.6633 5.30176 48.3042 5.16211 49.0347 5.16211C49.5646 5.16211 50.0516 5.24089 50.4956 5.39844C50.9396 5.55599 51.3228 5.81022 51.645 6.16113C51.9673 6.51204 52.218 6.97754 52.397 7.55762C52.576 8.13053 52.6656 8.83952 52.6656 9.68457V17H49.0347V9.68457C49.0347 9.20475 48.9774 8.8431 48.8628 8.59961C48.7554 8.34896 48.5978 8.18066 48.3902 8.09473C48.1825 8.00163 47.9354 7.95508 47.6489 7.95508C47.3052 7.95508 47.008 8.02669 46.7573 8.16992C46.5067 8.31315 46.2954 8.51367 46.1236 8.77148C45.9588 9.02214 45.8371 9.31934 45.7583 9.66309C45.6795 10.0068 45.6402 10.3828 45.6402 10.791ZM61.7977 17.2148C60.8524 17.2148 60.0073 17.068 59.2625 16.7744C58.5178 16.4736 57.8875 16.0618 57.3719 15.5391C56.8635 15.0163 56.4732 14.4147 56.201 13.7344C55.936 13.054 55.8036 12.3343 55.8036 11.5752V11.167C55.8036 10.3148 55.9217 9.52702 56.1581 8.80371C56.3944 8.07324 56.7453 7.43587 57.2108 6.8916C57.6763 6.34733 58.2599 5.9248 58.9618 5.62402C59.6636 5.31608 60.48 5.16211 61.411 5.16211C62.2345 5.16211 62.9722 5.2946 63.6239 5.55957C64.2756 5.82454 64.827 6.2041 65.2782 6.69824C65.7365 7.19238 66.0838 7.79036 66.3202 8.49219C66.5636 9.19401 66.6854 9.98177 66.6854 10.8555V12.3271H57.1893V10.0605H63.1512V9.78125C63.1584 9.39453 63.0903 9.0651 62.9471 8.79297C62.811 8.52083 62.6105 8.31315 62.3456 8.16992C62.0806 8.02669 61.7583 7.95508 61.3788 7.95508C60.9849 7.95508 60.659 8.04102 60.4012 8.21289C60.1506 8.38477 59.9536 8.62109 59.8104 8.92188C59.6743 9.21549 59.5776 9.55566 59.5204 9.94238C59.4631 10.3291 59.4344 10.7373 59.4344 11.167V11.5752C59.4344 12.0049 59.4917 12.3952 59.6063 12.7461C59.728 13.097 59.8999 13.3978 60.1219 13.6484C60.3511 13.8919 60.6232 14.0817 60.9383 14.2178C61.2606 14.3538 61.6258 14.4219 62.034 14.4219C62.5282 14.4219 63.0151 14.3288 63.495 14.1426C63.9748 13.9564 64.3866 13.6484 64.7303 13.2188L66.3739 15.1738C66.1375 15.5104 65.801 15.8363 65.3641 16.1514C64.9344 16.4665 64.4188 16.7243 63.8172 16.9248C63.2157 17.1182 62.5425 17.2148 61.7977 17.2148Z" fill="white"/>
<path d="M73.1535 15.6357L76.1613 5.37695H80.05L75.3771 18.7295C75.2769 19.0231 75.1444 19.3382 74.9797 19.6748C74.8149 20.0186 74.5894 20.3444 74.3029 20.6523C74.0164 20.9603 73.6476 21.2109 73.1964 21.4043C72.7524 21.5977 72.201 21.6943 71.5422 21.6943C71.1912 21.6943 70.9334 21.6764 70.7687 21.6406C70.6112 21.612 70.3677 21.5583 70.0382 21.4795V18.8906C70.1313 18.8906 70.2101 18.8906 70.2746 18.8906C70.3462 18.8906 70.425 18.8906 70.5109 18.8906C70.8976 18.8906 71.2056 18.8512 71.4347 18.7725C71.6711 18.6937 71.8501 18.5791 71.9718 18.4287C72.1007 18.2783 72.201 18.0957 72.2726 17.8809L73.1535 15.6357ZM72.3908 5.37695L74.6789 13.5088L75.0763 17.3438H72.6486L68.5129 5.37695H72.3908ZM88.2905 14.0781V9.28711C88.2905 8.95768 88.244 8.6748 88.1509 8.43848C88.0578 8.20215 87.911 8.01953 87.7104 7.89062C87.5099 7.75456 87.2414 7.68652 86.9048 7.68652C86.6326 7.68652 86.3999 7.73307 86.2065 7.82617C86.0132 7.91927 85.8664 8.05892 85.7661 8.24512C85.6658 8.43132 85.6157 8.66764 85.6157 8.9541H81.9956C81.9956 8.41699 82.1138 7.91927 82.3501 7.46094C82.5936 6.99544 82.9373 6.59082 83.3813 6.24707C83.8325 5.90332 84.3696 5.63835 84.9927 5.45215C85.6229 5.25879 86.3247 5.16211 87.0981 5.16211C88.022 5.16211 88.8455 5.31608 89.5688 5.62402C90.2993 5.93197 90.8758 6.39388 91.2983 7.00977C91.7209 7.61849 91.9321 8.38477 91.9321 9.30859V14.0674C91.9321 14.8265 91.9751 15.403 92.061 15.7969C92.147 16.1836 92.2687 16.5238 92.4263 16.8174V17H88.7954C88.6235 16.6419 88.4946 16.2051 88.4087 15.6895C88.3299 15.1667 88.2905 14.6296 88.2905 14.0781ZM88.7309 9.89941L88.7524 11.833H87.1518C86.8153 11.833 86.5288 11.8796 86.2925 11.9727C86.0633 12.0658 85.8771 12.1947 85.7339 12.3594C85.5978 12.5169 85.4975 12.696 85.4331 12.8965C85.3758 13.097 85.3472 13.3083 85.3472 13.5303C85.3472 13.7451 85.3973 13.9385 85.4975 14.1104C85.605 14.2751 85.7482 14.404 85.9272 14.4971C86.1063 14.5902 86.3068 14.6367 86.5288 14.6367C86.9298 14.6367 87.27 14.5615 87.5493 14.4111C87.8358 14.2536 88.0542 14.0638 88.2046 13.8418C88.355 13.6198 88.4302 13.4121 88.4302 13.2188L89.2251 14.7012C89.0819 14.9876 88.9171 15.2777 88.7309 15.5713C88.5519 15.8649 88.3263 16.137 88.0542 16.3877C87.7892 16.6312 87.4634 16.8317 87.0766 16.9893C86.6899 17.1396 86.2209 17.2148 85.6694 17.2148C84.9533 17.2148 84.2944 17.068 83.6929 16.7744C83.0985 16.4808 82.6222 16.0726 82.2641 15.5498C81.9061 15.0199 81.727 14.4111 81.727 13.7236C81.727 13.1221 81.8345 12.585 82.0493 12.1123C82.2713 11.6396 82.6043 11.2386 83.0483 10.9092C83.4923 10.5798 84.0581 10.3291 84.7456 10.1572C85.4331 9.98535 86.2423 9.89941 87.1733 9.89941H88.7309ZM95.4031 0.5H99.0232V14.1426L98.6473 17H95.4031V0.5ZM106.156 11.0596V11.2852C106.156 12.166 106.067 12.9681 105.888 13.6914C105.708 14.4147 105.433 15.0413 105.06 15.5713C104.688 16.0941 104.219 16.4987 103.653 16.7852C103.087 17.0716 102.418 17.2148 101.644 17.2148C100.943 17.2148 100.341 17.0645 99.8397 16.7637C99.3384 16.4557 98.9194 16.0332 98.5828 15.4961C98.2462 14.9518 97.9741 14.3252 97.7664 13.6162C97.5587 12.9001 97.394 12.1338 97.2723 11.3174V11.0488C97.394 10.2396 97.5587 9.48047 97.7664 8.77148C97.9741 8.05534 98.2462 7.42871 98.5828 6.8916C98.9194 6.34733 99.3348 5.9248 99.8289 5.62402C100.33 5.31608 100.928 5.16211 101.623 5.16211C102.403 5.16211 103.077 5.30892 103.642 5.60254C104.215 5.89616 104.688 6.30794 105.06 6.83789C105.433 7.36784 105.708 7.99089 105.888 8.70703C106.067 9.42318 106.156 10.2074 106.156 11.0596ZM102.536 11.2852V11.0596C102.536 10.637 102.511 10.2396 102.461 9.86719C102.411 9.49479 102.321 9.16536 102.192 8.87891C102.063 8.59245 101.881 8.36686 101.644 8.20215C101.408 8.03743 101.1 7.95508 100.721 7.95508C100.334 7.95508 100.008 8.01953 99.743 8.14844C99.4852 8.27734 99.2775 8.46354 99.1199 8.70703C98.9695 8.94336 98.8621 9.23698 98.7977 9.58789C98.7332 9.93164 98.7046 10.3219 98.7117 10.7588V11.6074C98.6974 12.2018 98.7511 12.7103 98.8729 13.1328C98.9946 13.5553 99.2059 13.8776 99.5066 14.0996C99.8074 14.3216 100.219 14.4326 100.742 14.4326C101.129 14.4326 101.44 14.3574 101.677 14.207C101.92 14.0566 102.103 13.8418 102.224 13.5625C102.346 13.2832 102.429 12.9502 102.471 12.5635C102.514 12.1768 102.536 11.7507 102.536 11.2852ZM115.986 14.1748V5.37695H119.617V17H116.223L115.986 14.1748ZM116.33 11.8115L117.276 11.79C117.276 12.5706 117.182 13.2939 116.996 13.96C116.81 14.6188 116.534 15.1917 116.169 15.6787C115.811 16.1657 115.367 16.5452 114.837 16.8174C114.314 17.0824 113.709 17.2148 113.022 17.2148C112.449 17.2148 111.922 17.1361 111.443 16.9785C110.97 16.8138 110.562 16.5596 110.218 16.2158C109.874 15.8649 109.606 15.4173 109.412 14.873C109.226 14.3216 109.133 13.6628 109.133 12.8965V5.37695H112.753V12.918C112.753 13.1758 112.785 13.3978 112.85 13.584C112.914 13.7702 113.007 13.9277 113.129 14.0566C113.251 14.1784 113.401 14.2715 113.58 14.3359C113.766 14.3932 113.978 14.4219 114.214 14.4219C114.758 14.4219 115.184 14.3073 115.492 14.0781C115.8 13.849 116.015 13.5374 116.137 13.1436C116.266 12.7497 116.33 12.3057 116.33 11.8115ZM123.282 15.3027C123.282 14.7871 123.468 14.3574 123.84 14.0137C124.213 13.6628 124.692 13.4873 125.28 13.4873C125.874 13.4873 126.354 13.6628 126.719 14.0137C127.092 14.3574 127.278 14.7871 127.278 15.3027C127.278 15.8184 127.092 16.2516 126.719 16.6025C126.354 16.9463 125.874 17.1182 125.28 17.1182C124.692 17.1182 124.213 16.9463 123.84 16.6025C123.468 16.2516 123.282 15.8184 123.282 15.3027Z" fill="#CA38ED"/>
</svg>
