<svg width="28" height="29" viewBox="0 0 28 29" fill="none" xmlns="http://www.w3.org/2000/svg">
<path fill-rule="evenodd" clip-rule="evenodd" d="M3.75403 1.87703L3.75403 26.2791C3.75403 27.3157 2.71742 28.1561 1.877 28.1561C0.840393 28.1561 -2.6228e-05 27.3157 -2.61826e-05 26.2791L-2.5116e-05 1.87703C-2.50707e-05 0.840418 1.03658 -1.18783e-07 1.877 -8.20474e-08C2.91361 -3.67358e-08 3.75403 0.840418 3.75403 1.87703Z" fill="white"/>
<path fill-rule="evenodd" clip-rule="evenodd" d="M16.3661 8.88801C17.1454 8.10652 17.1448 6.8415 16.3663 6.06081C15.5873 5.27992 14.3252 5.28012 13.5465 6.06081L6.48982 13.1351C5.97013 13.6559 5.97053 14.5009 6.48982 15.0216L13.5465 22.0959C14.3258 22.8772 15.5876 22.8766 16.3663 22.0959C17.145 21.315 17.1448 20.0496 16.3661 19.2687L13.1637 16.059L26.0071 16.059C27.1069 16.059 28 15.164 28 14.0598C28 12.9557 27.1077 12.0608 26.0071 12.0608L13.2004 12.0608L16.3661 8.88801Z" fill="white"/>
</svg>
