<svg width="18" height="32" viewBox="0 0 18 32" fill="none" xmlns="http://www.w3.org/2000/svg">
<path d="M16.7662 0.359333H12.6822C11.6582 0.301445 10.6337 0.463869 9.67781 0.835647C8.72191 1.20743 7.85688 1.77991 7.14108 2.51447C6.42527 3.24902 5.87534 4.12857 5.52841 5.09376C5.18147 6.05895 5.04558 7.08732 5.12993 8.1095V11.6895H1.02402C0.853587 11.6895 0.690136 11.7572 0.569624 11.8777C0.449112 11.9982 0.381409 12.1617 0.381409 12.3321V17.5101C0.381409 17.6806 0.449112 17.844 0.569624 17.9645C0.690136 18.085 0.853587 18.1528 1.02402 18.1528H5.12993V31.2179C5.12993 31.3884 5.19763 31.5518 5.31814 31.6723C5.43866 31.7928 5.6021 31.8605 5.77253 31.8605H11.1298C11.3003 31.8605 11.4637 31.7928 11.5842 31.6723C11.7047 31.5518 11.7724 31.3884 11.7724 31.2179V18.146H16.5734C16.6578 18.146 16.7413 18.1294 16.8193 18.0971C16.8973 18.0648 16.9681 18.0174 17.0278 17.9578C17.0874 17.8981 17.1348 17.8273 17.1671 17.7493C17.1994 17.6713 17.216 17.5878 17.216 17.5034V12.3253C17.216 12.1549 17.1483 11.9915 17.0278 11.8709C16.9073 11.7504 16.7438 11.6827 16.5734 11.6827H11.7708V8.64557C11.7708 7.18956 12.1174 6.44718 14.0148 6.44718H16.7662C16.9366 6.44718 17.1 6.37948 17.2206 6.25896C17.3411 6.13845 17.4088 5.975 17.4088 5.80457V1.0087C17.4097 0.923748 17.3937 0.839458 17.3618 0.760711C17.3299 0.681964 17.2827 0.610323 17.223 0.549933C17.1632 0.489543 17.0921 0.441604 17.0137 0.408888C16.9352 0.376171 16.8511 0.359328 16.7662 0.359333Z" fill="#FCFDFE"/>
</svg>
