<svg width="32" height="32" viewBox="0 0 32 32" fill="none" xmlns="http://www.w3.org/2000/svg">
<path d="M31.238 9.45279C31.213 8.16885 30.9696 6.89854 30.5182 5.69629C30.119 4.6668 29.5093 3.73198 28.728 2.95164C27.9468 2.17131 27.0113 1.56265 25.9814 1.16461C24.779 0.71378 23.5087 0.470385 22.2249 0.444798C20.5672 0.366934 20.0412 0.3479 15.8383 0.3479C11.6354 0.3479 11.1059 0.366934 9.45344 0.437876C8.1695 0.462961 6.8992 0.706373 5.69694 1.15769C4.66205 1.54497 3.7247 2.15452 2.95094 2.94336C2.16441 3.71868 1.55572 4.65562 1.16699 5.68937C0.713239 6.89126 0.466917 8.16149 0.438527 9.44587C0.367584 11.1035 0.350281 11.6295 0.350281 15.8342C0.350281 20.0388 0.367584 20.5648 0.438527 22.2173C0.464098 23.5013 0.708097 24.7716 1.16007 25.9738C1.55862 27.0028 2.16752 27.9374 2.94784 28.7177C3.72815 29.498 4.6627 30.1069 5.69175 30.5055C6.89415 30.9563 8.16437 31.1997 9.44825 31.2253C11.099 31.2979 11.6267 31.3152 15.8296 31.3152C20.0325 31.3152 20.5603 31.2979 22.211 31.2253C23.495 31.2003 24.7653 30.9569 25.9675 30.5055C26.9969 30.1075 27.9317 29.4988 28.7121 28.7184C29.4925 27.938 30.1012 27.0032 30.4992 25.9738C30.9499 24.7713 31.1932 23.5011 31.219 22.2173C31.2917 20.5666 31.309 20.0388 31.309 15.8359C31.309 11.633 31.309 11.1052 31.2311 9.45452L31.238 9.45279ZM28.4488 22.0962C28.4387 23.0778 28.2584 24.0502 27.9158 24.9702C27.6577 25.6385 27.2627 26.2454 26.7561 26.752C26.2496 27.2586 25.6426 27.6536 24.9743 27.9117C24.0542 28.2536 23.0818 28.4339 22.1003 28.4447C20.4669 28.5173 19.9772 28.5346 15.8452 28.5346C11.7132 28.5346 11.2166 28.5173 9.59013 28.4447C8.60849 28.4347 7.63603 28.2544 6.71609 27.9117C6.04369 27.6645 5.4357 27.2688 4.93733 26.7542C4.42457 26.2546 4.0297 25.6469 3.78148 24.9754C3.4396 24.0552 3.2593 23.0829 3.24855 22.1014C3.17588 20.4679 3.15857 19.9783 3.15857 15.8463C3.15857 11.7143 3.17588 11.2177 3.24855 9.59121C3.25847 8.60957 3.43879 7.63711 3.78148 6.71717C4.02662 6.04464 4.42193 5.43688 4.93733 4.94014C5.43777 4.42677 6.04671 4.03185 6.71955 3.78429C7.63973 3.44248 8.61204 3.26218 9.59359 3.25136C11.227 3.17869 11.7167 3.16138 15.8487 3.16138C19.9806 3.16138 20.4772 3.18042 22.1037 3.25136C23.0854 3.26145 24.0578 3.44177 24.9778 3.78429C25.6501 4.03093 26.2581 4.42601 26.7565 4.94014C27.2693 5.43974 27.6642 6.04741 27.9124 6.7189C28.2542 7.63907 28.4345 8.61139 28.4453 9.59294C28.518 11.2264 28.5353 11.716 28.5353 15.848C28.5353 19.98 28.5163 20.4645 28.4453 22.0979L28.4488 22.0962Z" fill="#FCFDFE"/>
<path d="M15.8366 7.87988C14.2623 7.87988 12.7235 8.34669 11.4145 9.22128C10.1056 10.0959 9.08545 11.339 8.48302 12.7934C7.88059 14.2478 7.72296 15.8481 8.03008 17.3921C8.33719 18.9361 9.09526 20.3543 10.2084 21.4675C11.3216 22.5806 12.7398 23.3387 14.2838 23.6458C15.8277 23.9529 17.4281 23.7953 18.8825 23.1928C20.3369 22.5904 21.58 21.5702 22.4546 20.2613C23.3292 18.9524 23.796 17.4135 23.796 15.8393C23.796 13.7283 22.9574 11.7038 21.4647 10.2111C19.9721 8.71846 17.9475 7.87988 15.8366 7.87988ZM15.8366 20.9956C14.8161 20.9956 13.8185 20.693 12.9699 20.126C12.1214 19.5591 11.4601 18.7532 11.0695 17.8104C10.679 16.8676 10.5768 15.8301 10.7759 14.8292C10.975 13.8283 11.4664 12.9089 12.188 12.1873C12.9097 11.4657 13.829 10.9743 14.8299 10.7752C15.8308 10.5761 16.8683 10.6783 17.8111 11.0688C18.7539 11.4594 19.5598 12.1207 20.1268 12.9692C20.6937 13.8177 20.9964 14.8153 20.9964 15.8359C20.9959 17.2042 20.4521 18.5163 19.4846 19.4839C18.517 20.4514 17.2049 20.9952 15.8366 20.9956Z" fill="#FCFDFE"/>
<path d="M25.9692 7.56513C25.9692 7.93233 25.8603 8.29129 25.6563 8.59661C25.4523 8.90193 25.1624 9.13989 24.8231 9.28041C24.4839 9.42094 24.1105 9.4577 23.7504 9.38606C23.3902 9.31443 23.0594 9.1376 22.7998 8.87795C22.5401 8.6183 22.3633 8.28748 22.2917 7.92733C22.22 7.56718 22.2568 7.19388 22.3973 6.85463C22.5378 6.51537 22.7758 6.22541 23.0811 6.0214C23.3865 5.8174 23.7454 5.7085 24.1126 5.7085C24.605 5.7085 25.0773 5.90411 25.4255 6.25229C25.7736 6.60048 25.9692 7.07272 25.9692 7.56513Z" fill="#FCFDFE"/>
</svg>
