<svg width="32" height="26" viewBox="0 0 32 26" fill="none" xmlns="http://www.w3.org/2000/svg">
<path d="M31.6845 3.28771C30.5235 3.7955 29.2929 4.12603 28.0337 4.26823C29.3645 3.49275 30.3563 2.24672 30.8135 0.775947C29.571 1.51633 28.2089 2.0345 26.7885 2.30719C26.2059 1.68747 25.5048 1.19098 24.7268 0.847108C23.9489 0.503238 23.1098 0.318985 22.2593 0.30527C21.4089 0.291555 20.5643 0.448657 19.7756 0.767263C18.987 1.08587 18.2703 1.5595 17.668 2.16011C17.0689 2.74151 16.5952 3.43949 16.2762 4.21101C15.9571 4.98252 15.7996 5.81122 15.8132 6.64598C15.8171 7.13461 15.8719 7.6215 15.9766 8.09878C13.4326 7.97835 10.9446 7.30939 8.68319 6.13774C6.45114 4.99925 4.48176 3.40671 2.9014 1.46231C2.35281 2.40412 2.05566 3.47119 2.03848 4.56099C2.02131 5.65079 2.2847 6.7267 2.80335 7.68533C3.29622 8.59471 4.0043 9.36956 4.86571 9.94216C3.85955 9.90681 2.87656 9.63052 1.99933 9.1365V9.21494C1.97911 10.6897 2.49146 12.1223 3.44232 13.2498C4.36284 14.3835 5.65188 15.1584 7.08495 15.4396C6.54032 15.5827 5.97955 15.6552 5.41643 15.6553C5.01526 15.6524 4.61487 15.6196 4.21857 15.5573C4.62598 16.8163 5.41624 17.9167 6.47909 18.7051C7.54193 19.4934 8.82436 19.9303 10.1474 19.9549C7.91288 21.7371 5.13198 22.6941 2.27387 22.6644C1.76296 22.6677 1.25227 22.6421 0.744263 22.5876C3.6408 24.4712 7.02741 25.4612 10.4824 25.4343C12.6422 25.4498 14.7881 25.0876 16.8231 24.3639C18.6718 23.7239 20.3884 22.7526 21.8891 21.4976C23.2877 20.3013 24.5067 18.9099 25.5089 17.3663C26.4995 15.86 27.2637 14.2165 27.7771 12.4882C28.2688 10.8359 28.5209 9.12161 28.5256 7.39771C28.5256 7.03165 28.5191 6.75928 28.506 6.58061C29.7481 5.67517 30.8235 4.561 31.6845 3.28771Z" fill="#FCFDFE"/>
</svg>
